<svg width="1400" height="1400" viewBox="0 0 1400 1400" xmlns="http://www.w3.org/2000/svg">
  <rect width="1400" height="1400" fill="#0a0a12"/>
  <g stroke="#ffffff" stroke-opacity="0.04" stroke-width="1">
    <line x1="0" y1="233" x2="1400" y2="233"/><line x1="0" y1="466" x2="1400" y2="466"/>
    <line x1="0" y1="700" x2="1400" y2="700"/><line x1="0" y1="933" x2="1400" y2="933"/>
    <line x1="0" y1="1166" x2="1400" y2="1166"/><line x1="233" y1="0" x2="233" y2="1400"/>
    <line x1="466" y1="0" x2="466" y2="1400"/><line x1="700" y1="0" x2="700" y2="1400"/>
    <line x1="933" y1="0" x2="933" y2="1400"/><line x1="1166" y1="0" x2="1166" y2="1400"/>
  </g>
  <circle cx="700" cy="620" r="520" fill="none" stroke="#ffffff" stroke-opacity="0.05" stroke-width="1"/>
  <circle cx="700" cy="620" r="400" fill="none" stroke="#ffffff" stroke-opacity="0.05" stroke-width="1"/>
  <g fill="#e040fb" opacity="0.9">
    <rect x="300" y="500" width="16" height="240" rx="8"/>
    <rect x="326" y="540" width="16" height="160" rx="8"/>
    <rect x="352" y="470" width="16" height="300" rx="8"/>
    <rect x="378" y="560" width="16" height="120" rx="8"/>
    <rect x="404" y="510" width="16" height="220" rx="8"/>
    <rect x="430" y="580" width="16" height="80" rx="8"/>
    <rect x="456" y="480" width="16" height="280" rx="8"/>
    <rect x="482" y="550" width="16" height="140" rx="8"/>
    <rect x="508" y="520" width="16" height="200" rx="8"/>
    <rect x="534" y="570" width="16" height="100" rx="8"/>
    <rect x="560" y="440" width="16" height="360" rx="8"/>
    <rect x="586" y="520" width="16" height="200" rx="8"/>
    <rect x="614" y="400" width="16" height="440" rx="8" fill="#f8bbd0"/>
    <rect x="642" y="520" width="16" height="200" rx="8"/>
    <rect x="668" y="440" width="16" height="360" rx="8"/>
    <rect x="694" y="570" width="16" height="100" rx="8"/>
    <rect x="720" y="520" width="16" height="200" rx="8"/>
    <rect x="746" y="550" width="16" height="140" rx="8"/>
    <rect x="772" y="480" width="16" height="280" rx="8"/>
    <rect x="798" y="580" width="16" height="80" rx="8"/>
    <rect x="824" y="510" width="16" height="220" rx="8"/>
    <rect x="850" y="560" width="16" height="120" rx="8"/>
    <rect x="876" y="470" width="16" height="300" rx="8"/>
    <rect x="902" y="540" width="16" height="160" rx="8"/>
    <rect x="928" y="500" width="16" height="240" rx="8"/>
    <rect x="954" y="560" width="16" height="120" rx="8"/>
    <rect x="980" y="490" width="16" height="260" rx="8"/>
    <rect x="1006" y="545" width="16" height="150" rx="8"/>
    <rect x="1032" y="510" width="16" height="220" rx="8"/>
    <rect x="1058" y="575" width="16" height="90" rx="8"/>
    <rect x="1084" y="495" width="16" height="250" rx="8"/>
  </g>
  <circle cx="622" cy="400" r="5" fill="#f8bbd0" opacity="0.9"/>
  <circle cx="622" cy="840" r="5" fill="#f8bbd0" opacity="0.9"/>
  <!-- Top eyebrow -->
  <text x="700" y="180" text-anchor="middle"
    font-family="'Helvetica Neue', Helvetica, Arial, sans-serif"
    font-size="24" font-weight="300" letter-spacing="10"
    fill="#e040fb" fill-opacity="0.7">FROM INBOX TO EARBUDS</text>
  <!-- Main title block -->
  <text x="700" y="1010" text-anchor="middle"
    font-family="'Helvetica Neue', Helvetica, Arial, sans-serif"
    font-size="96" font-weight="700" letter-spacing="-2"
    fill="#ffffff">DHK</text>
  <text x="700" y="1120" text-anchor="middle"
    font-family="'Helvetica Neue', Helvetica, Arial, sans-serif"
    font-size="96" font-weight="700" letter-spacing="-2"
    fill="#e040fb">DAILY</text>
  <text x="700" y="1230" text-anchor="middle"
    font-family="'Helvetica Neue', Helvetica, Arial, sans-serif"
    font-size="96" font-weight="700" letter-spacing="-2"
    fill="#ffffff">BRIEF</text>
  <!-- Corner accents -->
  <rect x="60" y="60" width="60" height="4" fill="#e040fb" opacity="0.7"/>
  <rect x="60" y="60" width="4" height="60" fill="#e040fb" opacity="0.7"/>
  <rect x="1280" y="60" width="60" height="4" fill="#e040fb" opacity="0.7"/>
  <rect x="1336" y="60" width="4" height="60" fill="#e040fb" opacity="0.7"/>
  <rect x="60" y="1336" width="60" height="4" fill="#e040fb" opacity="0.7"/>
  <rect x="60" y="1280" width="4" height="60" fill="#e040fb" opacity="0.7"/>
  <rect x="1280" y="1336" width="60" height="4" fill="#e040fb" opacity="0.7"/>
  <rect x="1336" y="1280" width="4" height="60" fill="#e040fb" opacity="0.7"/>
</svg>
